<?xml version="1.0" encoding="UTF-8"?>
<svg width="100pt" height="100pt" version="1.1" viewBox="0 0 100 100" xmlns="http://www.w3.org/2000/svg">
 <g>
  <rect width="100" height="100" fill="#3b6af9"/>
  <path d="m68.137 23.172h-36.273c-4.7852 0-8.6914 3.9062-8.6914 8.6914v36.273c0 4.7852 3.9062 8.6914 8.6914 8.6914h36.273c4.7852 0 8.6914-3.9062 8.6914-8.6914v-36.273c0-4.7852-3.9062-8.6914-8.6914-8.6914zm-36.273 3.1484h36.273c3.0234 0 5.4805 2.457 5.4805 5.4805v14.609h-47.297v-14.547c0-3.0234 2.5195-5.543 5.543-5.543zm36.273 47.359h-36.273c-3.0234 0-5.4805-2.457-5.4805-5.4805v-18.578h47.297v18.516c0 3.0234-2.5195 5.543-5.543 5.543z" fill="#fff"/>
  <path d="m42.57 36.586c0 3.1289-2.5391 5.668-5.668 5.668-3.1328 0-5.668-2.5391-5.668-5.668 0-3.1289 2.5352-5.668 5.668-5.668 3.1289 0 5.668 2.5391 5.668 5.668" fill="#fff"/>
  <path d="m48.551 34.32h19.145c0.88281 0 1.5742-0.69141 1.5742-1.5742 0-0.88281-0.69141-1.5742-1.5742-1.5742h-19.145c-0.88281 0-1.5742 0.69141-1.5742 1.5742 0 0.87891 0.75781 1.5742 1.5742 1.5742z" fill="#fff"/>
  <path d="m48.551 42.379h19.145c0.88281 0 1.5742-0.69141 1.5742-1.5742 0-0.88281-0.69141-1.5742-1.5742-1.5742h-19.145c-0.88281 0-1.5742 0.69141-1.5742 1.5742 0 0.82031 0.75781 1.5742 1.5742 1.5742z" fill="#fff"/>
 </g>
</svg>
